<svg xmlns="http://www.w3.org/2000/svg" version="1.1" xmlns:xlink="http://www.w3.org/1999/xlink" width="512" height="512" x="0" y="0" viewBox="0 0 64 64" style="enable-background:new 0 0 512 512" xml:space="preserve" class=""><g><g data-name="Layer 28"><path d="m37.573 43.492 1.302-11.912a.54.54 0 0 0-.477-.594.533.533 0 0 0-.594.477L36.49 43.492h-3.952V30.11a.538.538 0 1 0-1.076 0v13.382H27.51l-1.314-12.03a.534.534 0 0 0-.594-.476.54.54 0 0 0-.477.594l1.302 11.912H22.97l-2.44-15.325a9.21 9.21 0 0 0 6.628-3.296 11.477 11.477 0 0 0 9.682 0 9.21 9.21 0 0 0 6.627 3.296l-2.44 15.325zm3.538 3.174H22.89a1.046 1.046 0 0 1 0-2.093H41.11a1.046 1.046 0 0 1 0 2.093zm2.845-19.549a8.167 8.167 0 0 1-6.536-3.247.54.54 0 0 0-.674-.152 10.407 10.407 0 0 1-9.492 0 .541.541 0 0 0-.674.152 8.223 8.223 0 1 1-6.536-13.208 8.319 8.319 0 0 1 1.683.173.53.53 0 0 0 .609-.324 10.428 10.428 0 0 1 19.328 0 .53.53 0 0 0 .609.324 8.228 8.228 0 1 1 1.683 16.282zM27.129 60c-5.954 0-8.366-4.623-9.286-7.461 2.01 1.876 5.674 4.464 9.622 3.135a3.467 3.467 0 0 1 3.039.413 2.011 2.011 0 0 1 .893 1.663c0 2.087-3.267 2.25-4.268 2.25zm9.742 0c-1 0-4.268-.163-4.268-2.25a2.011 2.011 0 0 1 .893-1.663 3.344 3.344 0 0 1 1.934-.59 3.489 3.489 0 0 1 1.105.177c3.947 1.333 7.613-1.258 9.622-3.135C45.236 55.377 42.824 60 36.87 60z" fill="#ffffff" opacity="1" data-original="#000000" class=""></path></g></g></svg>